{"glyphs":{"0":{"ha":814,"x_min":0,"x_max":746,"o":"m 289 746 q 229 721 254 746 q 203 661 203 696 l 203 288 q 229 228 203 252 q 289 203 254 203 l 457 203 q 517 228 492 203 q 543 288 543 252 l 543 661 q 517 721 543 696 q 457 746 492 746 l 289 746 m 289 0 q 85 85 171 0 q 0 288 0 170 l 0 661 q 85 864 0 779 q 289 949 171 949 l 457 949 q 661 864 575 949 q 746 661 746 779 l 746 288 q 661 85 746 170 q 457 0 575 0 l 289 0 m 217 475 q 262 585 217 538 q 373 631 308 631 q 483 585 437 631 q 529 475 529 538 q 483 364 529 410 q 373 319 437 319 q 262 364 308 319 q 217 475 217 410 z "},"1":{"ha":407,"x_min":0,"x_max":339,"o":"m 136 692 q 0 661 68 661 l 0 864 q 60 889 35 864 q 85 949 85 914 l 339 949 l 339 0 l 136 0 l 136 692 z "},"2":{"ha":814,"x_min":0,"x_max":746,"o":"m 543 627 l 543 661 q 517 721 543 696 q 457 746 492 746 l 289 746 q 229 721 254 746 q 203 661 203 696 l 203 610 l 0 610 l 0 661 q 85 864 0 779 q 289 949 170 949 l 457 949 q 661 864 576 949 q 746 661 746 779 l 746 627 q 661 424 746 509 q 457 339 575 339 l 289 339 q 229 314 254 339 q 203 254 203 289 l 203 203 l 746 203 l 746 0 l 0 0 l 0 254 q 85 456 0 372 q 289 541 171 541 l 457 543 q 517 567 492 543 q 543 627 543 591 z "},"3":{"ha":814,"x_min":0,"x_max":746,"o":"m 543 661 l 543 661 q 517 721 543 696 q 457 746 492 746 l 289 746 q 229 721 254 746 q 203 661 203 696 l 203 610 l 0 610 l 0 661 q 85 864 0 779 q 289 949 170 949 l 457 949 q 661 864 576 949 q 746 661 746 779 l 746 661 q 678 475 746 543 l 678 475 q 746 288 746 406 l 746 288 q 661 85 746 170 q 457 0 576 0 l 289 0 q 85 85 170 0 q 0 288 0 170 l 0 339 l 203 339 l 203 288 q 229 228 203 252 q 289 203 254 203 l 457 203 q 517 228 492 203 q 543 288 543 252 l 543 288 q 517 347 543 323 q 457 372 492 372 l 289 372 l 289 576 l 457 576 q 517 601 492 576 q 543 661 543 625 z "},"4":{"ha":814,"x_min":0,"x_max":746,"o":"m 610 949 l 610 407 l 746 407 l 746 203 l 610 203 l 610 0 l 407 0 l 407 203 l 0 203 l 0 407 l 339 949 l 610 949 m 407 407 l 407 746 l 203 407 l 407 407 z "},"5":{"ha":814,"x_min":0,"x_max":746,"o":"m 746 949 l 746 746 l 203 746 l 203 576 l 457 575 q 662 490 578 575 q 746 288 746 406 q 661 84 746 170 q 457 -1 576 -1 l 0 0 l 0 203 l 457 203 q 517 228 492 203 q 543 288 543 252 q 517 347 543 323 q 457 372 492 372 l 0 373 l 0 949 l 746 949 z "},"6":{"ha":814,"x_min":0,"x_max":746,"o":"m 0 746 q 60 890 0 830 q 203 949 121 949 l 203 949 l 543 949 l 543 949 q 686 890 625 949 q 746 746 746 830 l 746 644 l 543 644 l 543 678 q 523 726 543 707 q 475 746 503 746 l 271 746 q 224 726 244 746 q 203 678 203 707 l 203 576 l 543 576 l 543 576 q 686 517 625 576 q 746 373 746 457 l 746 203 q 686 60 746 119 q 543 0 625 0 l 543 0 l 203 0 l 203 0 q 60 60 121 0 q 0 203 0 119 l 0 746 m 203 271 q 224 223 203 243 q 271 203 244 203 l 475 203 q 523 223 503 203 q 543 271 543 243 l 543 305 q 522 353 543 334 q 475 373 502 373 l 271 373 q 223 353 243 373 q 203 305 203 332 l 203 271 z "},"7":{"ha":814,"x_min":0,"x_max":746,"o":"m 203 746 l 203 543 l 0 543 l 0 949 l 746 949 l 746 644 q 666 452 746 532 q 475 373 586 373 l 475 0 l 271 0 l 271 305 q 351 516 271 456 q 543 576 430 576 l 543 746 l 203 746 z "},"8":{"ha":814,"x_min":0,"x_max":746,"o":"m 457 576 q 517 601 492 576 q 543 661 543 625 q 517 721 543 696 q 457 746 492 746 l 289 746 q 229 721 254 746 q 203 661 203 696 q 229 601 203 625 q 289 576 254 576 l 457 576 m 289 373 q 229 348 254 373 q 203 288 203 323 q 229 228 203 252 q 289 203 254 203 l 457 203 q 517 228 492 203 q 543 288 543 252 q 517 348 543 323 q 457 373 492 373 l 289 373 m 289 0 q 85 85 171 0 q 0 288 0 170 q 68 480 0 406 q 0 661 0 543 q 85 864 0 779 q 289 949 171 949 l 457 949 q 661 864 575 949 q 746 661 746 779 q 678 480 746 543 q 746 288 746 406 q 661 85 746 170 q 457 0 575 0 l 289 0 z "},"9":{"ha":814,"x_min":0,"x_max":746,"o":"m 746 203 q 686 60 746 119 q 543 0 625 0 l 543 0 l 203 0 l 203 0 q 60 60 121 0 q 0 203 0 119 l 0 305 l 203 305 l 203 271 q 223 223 203 243 q 271 203 243 203 l 475 203 q 522 223 502 203 q 543 271 543 243 l 543 373 l 203 373 l 203 373 q 60 433 121 373 q 0 576 0 492 l 0 746 q 60 890 0 830 q 203 949 121 949 l 203 949 l 543 949 l 543 949 q 686 890 625 949 q 746 746 746 830 l 746 203 m 543 678 q 522 726 543 707 q 475 746 502 746 l 271 746 q 223 726 243 746 q 203 678 203 707 l 203 644 q 224 596 203 616 q 271 576 244 576 l 475 576 q 523 597 503 576 q 543 644 543 617 l 543 678 z "}," ":{"ha":271,"x_min":0,"x_max":0,"o":""},"!":{"ha":271,"x_min":0,"x_max":203,"o":"m 0 203 l 203 203 l 203 0 l 0 0 l 0 203 m 0 949 l 203 949 l 203 339 l 0 339 l 0 949 z "},"\"":{"ha":543,"x_min":0,"x_max":475,"o":"m 0 746 l 0 949 l 203 949 l 203 814 q 144 671 203 731 q 0 610 84 610 l 0 678 q 47 699 27 678 q 68 746 68 719 l 0 746 m 271 746 l 271 949 l 475 949 l 475 814 q 415 671 475 731 q 271 610 355 610 l 271 678 q 319 699 298 678 q 339 746 339 719 l 271 746 z "},"#":{"ha":712,"x_min":0,"x_max":576,"o":"m 255 678 l 255 543 l 321 543 l 321 678 l 255 678 m 102 949 l 255 949 l 255 814 l 321 814 l 321 949 l 475 949 l 475 814 l 576 814 l 576 678 l 475 678 l 475 543 l 576 543 l 576 407 l 475 407 l 475 271 l 321 271 l 321 407 l 255 407 l 255 271 l 102 271 l 102 407 l 0 407 l 0 543 l 102 543 l 102 678 l 0 678 l 0 814 l 102 814 l 102 949 z "},"$":{"ha":814,"x_min":0,"x_max":746,"o":"m 746 949 l 746 746 l 289 746 q 229 721 254 746 q 203 661 203 696 q 229 601 203 625 q 289 576 254 576 l 457 575 q 662 490 578 575 q 746 288 746 406 q 661 84 746 170 q 457 0 576 -1 l 457 -136 l 289 -136 l 289 0 l 0 0 l 0 203 l 457 203 q 517 228 492 203 q 543 288 543 252 q 517 347 543 323 q 457 372 492 372 l 289 373 q 84 458 168 373 q 0 661 0 543 q 85 864 0 779 q 288 949 170 949 l 288 1085 l 457 1085 l 457 949 l 746 949 z "},"%":{"ha":814,"x_min":0,"x_max":746,"o":"m 644 949 l 746 949 l 102 0 l 0 0 l 644 949 m 517 373 q 487 360 499 373 q 475 330 475 347 l 475 144 q 487 114 475 126 q 517 102 499 102 l 602 102 q 632 114 620 102 q 644 144 644 126 l 644 330 q 632 360 644 347 q 602 373 620 373 l 517 373 m 517 0 q 416 42 458 0 q 373 144 373 84 l 373 330 q 416 432 373 389 q 517 475 458 475 l 602 475 q 703 432 661 475 q 746 330 746 389 l 746 144 q 703 42 746 84 q 602 0 661 0 l 517 0 m 144 848 q 114 835 126 848 q 102 804 102 822 l 102 618 q 114 589 102 601 q 144 576 126 576 l 229 576 q 259 589 247 576 q 271 618 271 601 l 271 804 q 259 835 271 822 q 229 848 247 848 l 144 848 m 144 475 q 43 517 85 475 q 0 618 0 559 l 0 804 q 43 907 0 864 q 144 949 85 949 l 229 949 q 330 907 288 949 q 373 804 373 864 l 373 618 q 330 517 373 559 q 229 475 288 475 l 144 475 z "},"&":{"ha":814,"x_min":0,"x_max":746,"o":"m 203 661 q 229 601 203 625 q 289 576 254 576 l 373 576 l 373 373 l 289 373 q 229 347 254 372 q 203 288 203 323 l 203 288 q 229 228 203 252 q 289 203 254 203 l 372 203 q 432 228 407 203 q 457 288 457 252 q 542 491 457 406 q 746 576 627 576 l 746 373 q 686 348 711 373 q 661 288 661 323 q 576 85 661 170 q 372 0 491 0 l 289 0 q 85 85 170 0 q 0 288 0 170 l 0 288 q 68 475 0 406 l 68 475 q 0 661 0 543 l 0 661 q 85 864 0 779 q 289 949 170 949 l 373 949 q 577 864 492 949 q 662 661 662 779 l 458 661 q 433 721 458 696 q 373 746 408 746 l 289 746 q 229 721 254 746 q 203 661 203 696 l 203 661 z "},"'":{"ha":271,"x_min":0,"x_max":203,"o":"m 0 746 l 0 949 l 203 949 l 203 814 q 144 671 203 731 q 0 610 84 610 l 0 678 q 47 699 27 678 q 68 746 68 719 l 0 746 z "},"(":{"ha":543,"x_min":0,"x_max":407,"o":"m 203 271 q 224 223 203 243 q 271 203 244 203 l 407 203 l 407 0 l 203 0 l 203 0 q 60 60 121 0 q 0 203 0 119 l 0 746 q 60 890 0 830 q 203 949 121 949 l 203 949 l 407 949 l 407 746 l 271 746 q 224 726 244 746 q 203 678 203 707 l 203 271 z "},")":{"ha":543,"x_min":68,"x_max":475,"o":"m 271 271 l 271 678 q 251 726 271 707 q 203 746 231 746 l 68 746 l 68 949 l 271 949 l 271 949 q 414 890 354 949 q 475 746 475 830 l 475 203 q 414 60 475 119 q 271 0 354 0 l 271 0 l 68 0 l 68 203 l 203 203 q 251 223 231 203 q 271 271 271 243 z "},"*":{"ha":814,"x_min":-4,"x_max":681,"o":"m 237 949 l 263 746 l 103 875 l -4 701 l 195 610 l -4 519 l 103 346 l 263 475 l 237 271 l 441 271 l 415 472 l 574 346 l 681 519 l 481 610 l 681 701 l 574 875 l 416 750 l 441 949 l 237 949 z "},"+":{"ha":814,"x_min":68,"x_max":678,"o":"m 289 780 l 289 559 l 68 559 l 68 391 l 289 391 l 289 170 l 457 170 l 457 391 l 678 391 l 678 559 l 457 559 l 457 780 l 289 780 z "},",":{"ha":271,"x_min":0,"x_max":203,"o":"m 0 0 l 0 203 l 203 203 l 203 68 q 144 -75 203 -15 q 0 -136 84 -136 l 0 -68 q 47 -47 27 -68 q 68 0 68 -27 l 0 0 z "},"-":{"ha":712,"x_min":0,"x_max":644,"o":"m 0 373 l 0 576 l 644 576 l 644 373 l 0 373 z "},".":{"ha":271,"x_min":0,"x_max":203,"o":"m 0 0 l 0 203 l 203 203 l 203 0 l 0 0 z "},"/":{"ha":712,"x_min":0,"x_max":644,"o":"m 441 949 l 644 949 l 203 0 l 0 0 l 441 949 z "},":":{"ha":271,"x_min":0,"x_max":203,"o":"m 0 0 l 0 203 l 203 203 l 203 0 l 0 0 m 0 543 l 203 543 l 203 339 l 0 339 l 0 543 z "},";":{"ha":271,"x_min":0,"x_max":203,"o":"m 0 0 l 0 203 l 203 203 l 203 68 q 144 -75 203 -15 q 0 -136 84 -136 l 0 -68 q 47 -47 27 -68 q 68 0 68 -27 l 0 0 m 0 543 l 203 543 l 203 339 l 0 339 l 0 543 z "},"<":{"ha":814,"x_min":0,"x_max":678,"o":"m 678 882 l 0 543 l 0 407 l 678 68 l 678 271 l 271 475 l 678 678 l 678 882 z "},"=":{"ha":746,"x_min":68,"x_max":610,"o":"m 68 543 l 68 712 l 610 712 l 610 543 l 68 543 m 68 305 l 68 475 l 610 475 l 610 305 l 68 305 z "},">":{"ha":814,"x_min":68,"x_max":746,"o":"m 68 882 l 68 678 l 475 475 l 68 271 l 68 68 l 746 407 l 746 543 l 68 882 z "},"?":{"ha":814,"x_min":0,"x_max":746,"o":"m 271 203 l 475 203 l 475 0 l 271 0 l 271 203 m 543 746 l 203 746 l 203 610 l 0 610 l 0 746 q 60 889 0 829 q 203 949 119 949 l 407 949 l 543 949 q 686 889 625 949 q 746 746 746 829 l 746 610 q 686 467 746 528 q 543 407 627 407 l 475 407 l 475 339 l 271 339 l 271 407 q 331 550 271 490 q 475 610 391 610 l 543 610 l 543 746 z "},"@":{"ha":1356,"x_min":68,"x_max":1221,"o":"m 339 407 q 399 551 339 491 q 541 610 458 610 l 541 610 l 746 610 l 746 610 q 726 659 746 639 q 678 678 705 678 l 339 678 l 339 882 l 746 882 l 746 882 q 889 822 829 882 q 949 678 949 762 l 949 271 q 997 291 977 271 q 1017 339 1017 311 l 1017 882 q 997 930 1017 910 q 949 949 977 949 l 339 949 q 292 930 312 949 q 271 882 271 910 l 271 68 q 292 20 271 39 q 339 0 312 0 l 1221 0 l 1221 -203 l 271 -203 l 271 -203 q 128 -144 189 -203 q 68 0 68 -84 l 68 949 q 128 1093 68 1034 q 271 1153 189 1153 l 271 1153 l 1017 1153 l 1017 1153 q 1160 1093 1100 1153 q 1221 949 1221 1034 l 1221 271 q 1160 127 1221 187 q 1017 68 1100 68 l 1017 68 l 543 68 l 543 68 q 399 127 460 68 q 339 271 339 187 l 339 407 m 746 407 l 609 407 q 562 387 582 407 q 543 339 543 368 q 563 291 543 311 q 610 271 583 271 l 746 271 l 746 407 z "},"A":{"ha":814,"x_min":0,"x_max":746,"o":"m 746 0 l 543 0 l 543 576 q 493 696 543 646 q 373 746 444 746 q 254 696 304 746 q 203 576 203 646 l 203 0 l 0 0 l 0 576 q 110 840 0 730 q 373 949 220 949 q 637 840 528 949 q 746 576 746 730 l 746 0 m 217 305 q 262 415 217 369 q 373 461 308 461 q 483 415 437 461 q 529 305 529 369 q 483 195 529 240 q 373 149 437 149 q 262 195 308 149 q 217 305 217 240 z "},"B":{"ha":814,"x_min":0,"x_max":746,"o":"m 0 949 l 457 949 q 661 864 575 949 q 746 661 746 779 q 678 480 746 543 q 746 288 746 406 q 661 85 746 170 q 457 0 575 0 l 0 0 l 0 949 m 203 576 l 457 576 q 517 601 492 576 q 543 661 543 625 q 517 721 543 696 q 457 746 492 746 l 203 746 l 203 576 m 203 203 l 457 203 q 517 228 492 203 q 543 288 543 252 q 517 348 543 323 q 457 373 492 373 l 203 373 l 203 203 z "},"C":{"ha":814,"x_min":0,"x_max":746,"o":"m 543 949 q 686 890 627 949 q 746 746 746 831 l 746 576 l 543 576 l 543 661 q 515 721 540 696 q 456 746 491 746 l 288 746 q 228 721 252 746 q 203 661 203 696 l 203 288 q 228 228 203 252 q 288 203 252 203 l 456 203 q 515 228 491 203 q 543 288 540 252 l 543 373 l 746 373 l 746 203 q 686 60 746 119 q 543 0 627 0 l 203 0 q 60 60 119 0 q 0 203 0 119 l 0 746 q 60 890 0 831 q 203 949 119 949 l 543 949 z "},"D":{"ha":814,"x_min":0,"x_max":746,"o":"m 0 949 l 457 949 q 661 864 575 949 q 746 661 746 779 l 746 288 q 661 85 746 170 q 457 0 575 0 l 0 0 l 0 949 m 203 203 l 457 203 q 517 228 492 203 q 543 288 543 252 l 543 661 q 517 721 543 696 q 457 746 492 746 l 203 746 l 203 203 z "},"E":{"ha":814,"x_min":-1,"x_max":746,"o":"m 746 949 l 746 746 l 288 746 q 228 721 252 746 q 203 661 203 696 l 203 576 l 746 576 l 746 373 l 203 373 l 203 288 q 228 228 203 252 q 288 203 252 203 l 746 203 l 746 0 l 203 0 q 59 60 119 0 q 0 203 -1 119 l 0 746 q 59 890 -1 831 q 203 949 119 949 l 746 949 z "},"F":{"ha":814,"x_min":-1,"x_max":746,"o":"m 746 949 l 746 746 l 288 746 q 228 721 252 746 q 203 661 203 696 l 203 576 l 746 576 l 746 373 l 203 373 l 203 0 l 0 0 l 0 746 q 59 890 -1 831 q 203 949 119 949 l 746 949 z "},"G":{"ha":814,"x_min":0,"x_max":746,"o":"m 339 576 l 746 576 l 746 0 l 203 0 q 60 60 119 0 q 0 203 0 119 l 0 746 q 60 890 0 831 q 203 949 119 949 l 746 949 l 746 746 l 288 746 q 228 721 252 746 q 203 661 203 696 l 203 288 q 228 228 203 252 q 288 203 252 203 l 543 203 l 543 373 l 339 373 l 339 576 z "},"H":{"ha":814,"x_min":0,"x_max":746,"o":"m 0 949 l 203 949 l 203 576 l 543 576 l 543 949 l 746 949 l 746 0 l 543 0 l 543 373 l 203 373 l 203 0 l 0 0 l 0 949 z "},"I":{"ha":271,"x_min":0,"x_max":203,"o":"m 0 949 l 203 949 l 203 0 l 0 0 l 0 949 z "},"J":{"ha":814,"x_min":0,"x_max":746,"o":"m 746 949 l 746 203 q 686 60 746 119 q 543 0 625 0 l 543 0 l 203 0 l 203 0 q 60 60 121 0 q 0 203 0 119 l 0 475 l 203 475 l 203 271 q 223 223 203 243 q 271 203 243 203 l 475 203 q 522 223 502 203 q 543 271 543 243 l 543 949 l 746 949 z "},"K":{"ha":814,"x_min":0,"x_max":746,"o":"m 0 949 l 203 949 l 203 576 l 457 576 q 517 601 492 576 q 543 661 543 625 l 543 949 l 746 949 l 746 661 q 678 480 746 543 q 746 288 746 406 l 746 0 l 543 0 l 543 288 q 517 348 543 323 q 457 373 492 373 l 203 373 l 203 0 l 0 0 l 0 949 z "},"L":{"ha":814,"x_min":0,"x_max":746,"o":"m 0 949 l 203 949 l 203 271 q 224 223 203 243 q 271 203 244 203 l 746 203 l 746 0 l 203 0 l 203 0 q 60 60 121 0 q 0 203 0 119 l 0 949 z "},"M":{"ha":983,"x_min":0,"x_max":916,"o":"m 203 0 l 0 0 l 0 678 q 79 869 0 789 q 271 949 159 949 q 454 882 382 949 q 644 949 532 949 q 836 869 755 949 q 916 678 916 789 l 916 0 l 709 0 l 709 678 q 686 730 709 708 q 632 753 663 753 q 578 730 600 753 q 556 678 556 708 l 556 0 l 353 0 l 353 678 q 331 730 353 708 q 278 753 309 753 q 226 730 248 753 q 203 678 203 708 l 203 0 z "},"N":{"ha":814,"x_min":0,"x_max":746,"o":"m 746 0 l 543 0 l 543 576 q 493 696 543 646 q 373 746 444 746 q 254 696 304 746 q 203 576 203 646 l 203 0 l 0 0 l 0 576 q 110 840 0 730 q 373 949 220 949 q 637 840 528 949 q 746 576 746 730 l 746 0 z "},"O":{"ha":1017,"x_min":0,"x_max":949,"o":"m 0 475 q 140 809 0 669 q 475 949 279 949 q 809 809 669 949 q 949 475 949 669 q 809 140 949 279 q 475 0 669 0 q 140 140 279 0 q 0 475 0 279 m 203 475 q 283 283 203 362 q 475 203 362 203 q 666 283 586 203 q 746 475 746 362 q 666 666 746 586 q 475 746 586 746 q 283 666 362 746 q 203 475 203 586 z "},"P":{"ha":814,"x_min":0,"x_max":746,"o":"m 0 949 l 457 949 q 661 864 575 949 q 746 661 746 779 q 661 458 746 543 q 457 373 575 373 l 203 373 l 203 0 l 0 0 l 0 949 m 203 576 l 457 576 q 517 601 492 576 q 543 661 543 625 q 517 721 543 696 q 457 746 492 746 l 203 746 l 203 576 z "},"Q":{"ha":814,"x_min":0,"x_max":746,"o":"m 0 288 l 0 661 q 85 864 0 779 q 288 949 170 949 l 457 949 q 661 864 575 949 q 746 661 746 779 l 746 288 q 661 85 746 170 q 457 0 575 0 l 457 -136 l 288 -136 l 288 0 q 85 85 170 0 q 0 288 0 170 m 203 661 l 203 288 q 228 228 203 252 q 288 203 252 203 l 457 203 q 517 228 492 203 q 543 288 543 252 l 543 661 q 517 721 543 696 q 457 746 492 746 l 288 746 q 228 721 252 746 q 203 661 203 696 z "},"R":{"ha":814,"x_min":0,"x_max":746,"o":"m 0 949 l 457 949 q 661 864 575 949 q 746 661 746 779 q 678 480 746 543 q 746 288 746 406 l 746 0 l 543 0 l 543 288 q 517 348 543 323 q 457 373 492 373 l 203 373 l 203 0 l 0 0 l 0 949 m 203 576 l 457 576 q 517 601 492 576 q 543 661 543 625 q 517 721 543 696 q 457 746 492 746 l 203 746 l 203 576 z "},"S":{"ha":814,"x_min":0,"x_max":746,"o":"m 746 949 l 746 746 l 289 746 q 229 721 254 746 q 203 661 203 696 q 229 601 203 625 q 289 576 254 576 l 457 575 q 662 490 578 575 q 746 288 746 406 q 661 84 746 170 q 457 -1 576 -1 l 0 0 l 0 203 l 457 203 q 517 228 492 203 q 543 288 543 252 q 517 347 543 323 q 457 372 492 372 l 289 373 q 84 458 168 373 q 0 661 0 543 q 85 864 0 779 q 289 949 170 949 l 746 949 z "},"T":{"ha":814,"x_min":0,"x_max":746,"o":"m 0 949 l 746 949 l 746 746 l 475 746 l 475 0 l 271 0 l 271 746 l 0 746 l 0 949 z "},"U":{"ha":814,"x_min":0,"x_max":746,"o":"m 746 949 l 746 373 q 637 110 746 220 q 373 0 528 0 q 110 110 220 0 q 0 373 0 220 l 0 949 l 203 949 l 203 373 q 254 254 203 304 q 373 203 304 203 q 493 254 444 203 q 543 373 543 304 l 543 949 l 746 949 z "},"V":{"ha":814,"x_min":-1,"x_max":746,"o":"m 203 288 q 228 228 203 252 q 271 203 252 203 l 543 949 l 746 949 l 407 0 l 203 0 q 59 60 119 0 q 0 203 -1 119 l 0 949 l 203 949 l 203 288 z "},"W":{"ha":983,"x_min":0,"x_max":916,"o":"m 203 949 l 203 271 q 226 219 203 241 q 278 197 248 197 q 331 219 309 197 q 353 271 353 241 l 353 949 l 556 949 l 556 271 q 578 219 556 241 q 632 197 600 197 q 686 219 663 197 q 709 271 709 241 l 709 949 l 916 949 l 916 271 q 836 80 916 160 q 644 0 755 0 q 454 68 532 0 q 271 0 382 0 q 79 80 159 0 q 0 271 0 160 l 0 949 l 203 949 z "},"X":{"ha":746,"x_min":0,"x_max":746,"o":"m 457 576 q 517 601 492 576 q 543 661 543 625 l 543 949 l 746 949 l 746 661 q 678 480 746 543 q 746 288 746 406 l 746 0 l 543 0 l 543 288 q 517 348 543 323 q 457 373 492 373 l 289 373 q 229 348 254 373 q 203 288 203 323 l 203 0 l 0 0 l 0 288 q 68 480 0 406 q 0 661 0 543 l 0 949 l 203 949 l 203 661 q 229 601 203 625 q 289 576 254 576 l 457 576 z "},"Y":{"ha":814,"x_min":0,"x_max":746,"o":"m 457 576 q 517 601 492 576 q 543 661 543 625 l 543 949 l 746 949 l 746 661 q 669 458 746 543 q 475 373 593 373 l 475 0 l 271 0 l 271 373 q 77 458 153 373 q 0 661 0 543 l 0 949 l 203 949 l 203 661 q 229 601 203 625 q 289 576 254 576 l 457 576 z "},"Z":{"ha":712,"x_min":0,"x_max":644,"o":"m 0 949 l 644 949 l 644 661 q 559 458 644 543 q 355 373 473 373 l 289 372 q 229 348 254 373 q 203 288 203 323 l 203 203 l 644 203 l 644 0 l 0 0 l 0 288 q 85 490 0 406 q 289 575 171 575 l 355 576 q 416 601 391 576 q 441 661 441 625 l 441 746 l 0 746 l 0 949 z "},"[":{"ha":543,"x_min":0,"x_max":407,"o":"m 203 203 l 407 203 l 407 0 l 0 0 l 0 949 l 407 949 l 407 746 l 203 746 l 203 203 z "},"\\":{"ha":712,"x_min":-1,"x_max":643,"o":"m 202 949 l 643 0 l 439 0 l -1 949 l 202 949 z "},"]":{"ha":543,"x_min":68,"x_max":475,"o":"m 271 203 l 271 746 l 68 746 l 68 949 l 475 949 l 475 0 l 68 0 l 68 203 l 271 203 z "},"^":{"ha":678,"x_min":0,"x_max":610,"o":"m 170 678 l 0 678 l 271 949 l 339 949 l 610 678 l 441 678 l 305 814 l 170 678 z "},"_":{"ha":610,"x_min":0,"x_max":610,"o":"m 0 0 l 0 203 l 610 203 l 610 0 l 0 0 z "},"`":{"ha":271,"x_min":0,"x_max":203,"o":"m 203 746 l 136 746 q 156 699 136 719 q 203 678 176 678 l 203 610 q 60 671 119 610 q 0 814 0 731 l 0 949 l 203 949 l 203 746 z "},"a":{"ha":712,"x_min":0,"x_max":644,"o":"m 203 407 l 441 407 l 441 627 q 406 711 441 675 q 321 746 370 746 q 238 711 273 746 q 203 627 203 675 l 203 407 m 441 203 l 203 203 l 203 0 l 0 0 l 0 627 q 94 854 0 760 q 321 949 189 949 q 549 854 454 949 q 644 627 644 760 l 644 0 l 441 0 l 441 203 z "},"b":{"ha":712,"x_min":0,"x_max":644,"o":"m 0 949 l 355 949 q 559 864 473 949 q 644 661 644 779 q 576 480 644 543 q 644 288 644 406 q 559 85 644 170 q 355 0 473 0 l 0 0 l 0 949 m 203 576 l 355 576 q 416 601 391 576 q 441 661 441 625 q 416 721 441 696 q 355 746 391 746 l 203 746 l 203 576 m 203 203 l 355 203 q 416 228 391 203 q 441 288 441 252 q 416 348 441 323 q 355 373 391 373 l 203 373 l 203 203 z "},"c":{"ha":712,"x_min":-1,"x_max":644,"o":"m 644 949 l 644 746 l 288 746 q 228 721 252 746 q 203 661 203 696 l 203 288 q 228 228 203 252 q 288 203 252 203 l 644 203 l 643 0 l 203 0 q 59 60 119 0 q 0 203 -1 119 l 0 746 q 59 890 -1 831 q 203 949 119 949 l 644 949 z "},"d":{"ha":712,"x_min":0,"x_max":644,"o":"m 0 949 l 355 949 q 559 864 473 949 q 644 661 644 779 l 644 288 q 559 85 644 170 q 355 0 473 0 l 0 0 l 0 949 m 203 203 l 355 203 q 416 228 391 203 q 441 288 441 252 l 441 661 q 416 721 441 696 q 355 746 391 746 l 203 746 l 203 203 z "},"e":{"ha":712,"x_min":-1,"x_max":644,"o":"m 644 949 l 644 746 l 288 746 q 228 721 252 746 q 203 661 203 696 l 203 576 l 644 576 l 644 373 l 203 373 l 203 288 q 228 228 203 252 q 288 203 252 203 l 644 203 l 643 0 l 203 0 q 59 60 119 0 q 0 203 -1 119 l 0 746 q 59 890 -1 831 q 203 949 119 949 l 644 949 z "},"f":{"ha":712,"x_min":-1,"x_max":644,"o":"m 644 949 l 644 746 l 288 746 q 228 721 252 746 q 203 661 203 696 l 203 576 l 644 576 l 644 373 l 203 373 l 203 0 l 0 0 l 0 746 q 59 890 -1 831 q 203 949 119 949 l 644 949 z "},"g":{"ha":712,"x_min":0,"x_max":644,"o":"m 305 576 l 644 576 l 644 0 l 203 0 q 60 60 119 0 q 0 203 0 119 l 0 746 q 60 890 0 831 q 203 949 119 949 l 644 949 l 644 746 l 288 746 q 228 721 252 746 q 203 661 203 696 l 203 288 q 228 228 203 252 q 288 203 252 203 l 441 203 l 441 373 l 305 373 l 305 576 z "},"h":{"ha":712,"x_min":0,"x_max":644,"o":"m 0 949 l 203 949 l 203 576 l 441 576 l 441 949 l 644 949 l 644 0 l 441 0 l 441 373 l 203 373 l 203 0 l 0 0 l 0 949 z "},"i":{"ha":271,"x_min":0,"x_max":203,"o":"m 0 949 l 203 949 l 203 0 l 0 0 l 0 949 z "},"j":{"ha":610,"x_min":0,"x_max":543,"o":"m 543 949 l 543 203 q 482 60 543 119 q 339 0 422 0 l 339 0 l 0 0 l 0 203 l 271 203 q 319 223 298 203 q 339 271 339 243 l 339 949 l 543 949 z "},"k":{"ha":712,"x_min":0,"x_max":644,"o":"m 0 949 l 203 949 l 203 576 l 355 576 q 416 601 391 576 q 441 661 441 625 l 441 949 l 644 949 l 644 661 q 576 480 644 543 q 644 288 644 406 l 644 0 l 441 0 l 441 288 q 416 348 441 323 q 355 373 391 373 l 203 373 l 203 0 l 0 0 l 0 949 z "},"l":{"ha":610,"x_min":0,"x_max":543,"o":"m 0 949 l 203 949 l 203 271 q 224 223 203 243 q 271 203 244 203 l 543 203 l 543 0 l 203 0 l 203 0 q 60 60 121 0 q 0 203 0 119 l 0 949 z "},"m":{"ha":983,"x_min":0,"x_max":916,"o":"m 203 0 l 0 0 l 0 678 q 79 869 0 789 q 271 949 159 949 q 454 882 382 949 q 644 949 532 949 q 836 869 755 949 q 916 678 916 789 l 916 0 l 709 0 l 709 678 q 686 730 709 708 q 632 753 663 753 q 578 730 600 753 q 556 678 556 708 l 556 0 l 353 0 l 353 678 q 331 730 353 708 q 278 753 309 753 q 226 730 248 753 q 203 678 203 708 l 203 0 z "},"n":{"ha":712,"x_min":0,"x_max":644,"o":"m 203 0 l 0 0 l 0 627 q 94 854 0 760 q 321 949 189 949 q 549 854 454 949 q 644 627 644 760 l 644 0 l 441 0 l 441 627 q 406 711 441 675 q 321 746 370 746 q 238 711 273 746 q 203 627 203 675 l 203 0 z "},"o":{"ha":712,"x_min":0,"x_max":644,"o":"m 0 288 l 0 661 q 85 864 0 779 q 288 949 170 949 l 355 949 q 559 864 473 949 q 644 661 644 779 l 644 288 q 559 85 644 170 q 355 0 473 0 l 288 0 q 85 85 170 0 q 0 288 0 170 m 203 661 l 203 288 q 228 228 203 252 q 288 203 252 203 l 355 203 q 416 228 391 203 q 441 288 441 252 l 441 661 q 416 721 441 696 q 355 746 391 746 l 288 746 q 228 721 252 746 q 203 661 203 696 z "},"p":{"ha":712,"x_min":0,"x_max":644,"o":"m 0 949 l 355 949 q 559 864 473 949 q 644 661 644 779 q 559 458 644 543 q 355 373 473 373 l 203 373 l 203 0 l 0 0 l 0 949 m 203 576 l 355 576 q 416 601 391 576 q 441 661 441 625 q 416 721 441 696 q 355 746 391 746 l 203 746 l 203 576 z "},"q":{"ha":712,"x_min":0,"x_max":644,"o":"m 0 288 l 0 661 q 85 864 0 779 q 288 949 170 949 l 355 949 q 559 864 473 949 q 644 661 644 779 l 644 288 q 559 92 644 170 q 407 0 473 14 l 407 -136 l 237 -136 l 237 0 q 85 92 170 14 q 0 288 0 170 m 203 661 l 203 288 q 228 228 203 252 q 288 203 252 203 l 355 203 q 416 228 391 203 q 441 288 441 252 l 441 661 q 416 721 441 696 q 355 746 391 746 l 288 746 q 228 721 252 746 q 203 661 203 696 z "},"r":{"ha":712,"x_min":0,"x_max":644,"o":"m 0 949 l 355 949 q 559 864 473 949 q 644 661 644 779 q 576 480 644 543 q 644 288 644 406 l 644 0 l 441 0 l 441 288 q 416 348 441 323 q 355 373 391 373 l 203 373 l 203 0 l 0 0 l 0 949 m 203 576 l 355 576 q 416 601 391 576 q 441 661 441 625 q 416 721 441 696 q 355 746 391 746 l 203 746 l 203 576 z "},"s":{"ha":712,"x_min":0,"x_max":644,"o":"m 644 949 l 644 746 l 289 746 q 229 721 254 746 q 203 661 203 696 q 229 601 203 625 q 289 576 254 576 l 355 575 q 560 490 476 575 q 644 288 644 406 q 559 84 644 170 q 355 -1 475 -1 l 0 0 l 0 203 l 355 203 q 416 228 391 203 q 441 288 441 252 q 416 347 441 323 q 355 372 391 372 l 289 373 q 84 458 168 373 q 0 661 0 543 q 85 864 0 779 q 289 949 170 949 l 644 949 z "},"t":{"ha":712,"x_min":0,"x_max":644,"o":"m 0 949 l 644 949 l 644 746 l 425 746 l 425 0 l 221 0 l 221 746 l 0 746 l 0 949 z "},"u":{"ha":712,"x_min":0,"x_max":644,"o":"m 203 949 l 203 323 q 238 239 203 274 q 321 203 273 203 q 406 239 370 203 q 441 323 441 274 l 441 949 l 644 949 l 644 323 q 549 95 644 190 q 321 0 454 0 q 94 95 189 0 q 0 323 0 190 l 0 949 l 203 949 z "},"v":{"ha":814,"x_min":0,"x_max":746,"o":"m 373 373 l 543 949 l 746 949 l 475 0 l 271 0 l 0 949 l 203 949 l 373 373 z "},"w":{"ha":983,"x_min":0,"x_max":916,"o":"m 203 949 l 203 271 q 226 219 203 241 q 278 197 248 197 q 331 219 309 197 q 353 271 353 241 l 353 949 l 556 949 l 556 271 q 578 219 556 241 q 632 197 600 197 q 686 219 663 197 q 709 271 709 241 l 709 949 l 916 949 l 916 271 q 836 80 916 160 q 644 0 755 0 q 454 68 532 0 q 271 0 382 0 q 79 80 159 0 q 0 271 0 160 l 0 949 l 203 949 z "},"x":{"ha":814,"x_min":0,"x_max":746,"o":"m 0 949 l 251 509 l 0 0 l 203 0 l 373 298 l 543 0 l 746 0 l 475 475 l 746 949 l 475 949 l 346 692 l 203 949 l 0 949 z "},"y":{"ha":814,"x_min":0,"x_max":746,"o":"m 0 949 l 271 475 l 271 0 l 475 0 l 475 475 l 746 949 l 475 949 l 346 692 l 203 949 l 0 949 z "},"z":{"ha":712,"x_min":0,"x_max":644,"o":"m 0 949 l 644 949 l 644 746 l 203 203 l 644 203 l 644 0 l 0 0 l 0 203 l 441 746 l 0 746 l 0 949 z "},"{":{"ha":678,"x_min":0,"x_max":543,"o":"m 339 576 q 309 505 339 534 q 237 475 278 475 q 309 445 278 475 q 339 373 339 415 l 339 271 q 359 223 339 243 q 407 203 380 203 l 543 203 l 543 0 l 339 0 l 339 0 q 196 60 256 0 q 136 203 136 119 l 136 339 q 96 435 136 396 q 0 475 56 475 l 0 475 q 96 514 56 475 q 136 610 136 553 l 136 746 q 196 890 136 830 q 339 949 256 949 l 339 949 l 543 949 l 543 746 l 407 746 q 359 726 380 746 q 339 678 339 707 l 339 576 z "},"|":{"ha":203,"x_min":0,"x_max":136,"o":"m 0 -203 l 0 1153 l 136 1153 l 136 -203 l 0 -203 z "},"}":{"ha":678,"x_min":68,"x_max":610,"o":"m 271 576 l 271 678 q 251 726 271 707 q 203 746 231 746 l 68 746 l 68 949 l 271 949 l 271 949 q 414 890 354 949 q 475 746 475 830 l 475 610 q 515 514 475 553 q 610 475 555 475 l 610 475 q 515 435 555 475 q 475 339 475 396 l 475 203 q 414 60 475 119 q 271 0 354 0 l 271 0 l 68 0 l 68 203 l 203 203 q 251 223 231 203 q 271 271 271 243 l 271 373 q 302 445 271 415 q 373 475 332 475 q 302 505 332 475 q 271 576 271 534 z "},"~":{"ha":475,"x_min":0,"x_max":407,"o":"m 0 814 l 0 949 l 407 949 l 407 814 l 0 814 z "}," ":{"ha":694,"x_min":0,"x_max":0,"o":""},"¡":{"ha":694,"x_min":0,"x_max":0,"o":""},"¢":{"ha":694,"x_min":0,"x_max":0,"o":""},"£":{"ha":694,"x_min":0,"x_max":0,"o":""},"¤":{"ha":694,"x_min":0,"x_max":0,"o":""},"¥":{"ha":694,"x_min":0,"x_max":0,"o":""},"¦":{"ha":694,"x_min":0,"x_max":0,"o":""},"§":{"ha":694,"x_min":0,"x_max":0,"o":""},"¨":{"ha":694,"x_min":0,"x_max":0,"o":""},"©":{"ha":1017,"x_min":18,"x_max":902,"o":"m 902 472 q 842 252 902 354 q 679 92 781 149 q 460 34 576 34 q 238 92 340 34 q 77 252 136 149 q 18 472 18 354 q 77 692 18 590 q 238 854 136 795 q 460 913 340 913 q 679 854 576 913 q 842 692 781 795 q 902 472 902 590 m 815 472 q 711 724 815 620 q 460 827 606 827 q 207 724 312 827 q 102 472 102 620 q 207 221 102 326 q 460 117 312 117 q 711 221 606 117 q 815 472 815 326 m 540 712 q 613 682 582 712 q 644 609 644 652 l 644 543 l 543 543 l 540 566 q 527 596 538 583 q 498 609 515 609 l 412 609 q 383 596 395 609 q 372 566 372 583 l 372 380 q 383 350 372 362 q 412 338 395 338 l 498 338 q 527 350 515 338 q 540 380 538 362 l 543 407 l 644 407 l 644 338 q 613 267 644 296 q 540 237 582 237 l 372 237 q 300 267 330 237 q 271 338 271 296 l 271 609 q 300 682 271 652 q 372 712 330 712 l 540 712 z "},"ª":{"ha":694,"x_min":0,"x_max":0,"o":""},"«":{"ha":694,"x_min":0,"x_max":0,"o":""},"¬":{"ha":694,"x_min":0,"x_max":0,"o":""},"­":{"ha":694,"x_min":0,"x_max":0,"o":""},"®":{"ha":1017,"x_min":18,"x_max":902,"o":"m 902 472 q 842 252 902 354 q 679 92 781 149 q 460 34 576 34 q 238 92 340 34 q 77 252 136 149 q 18 472 18 354 q 77 692 18 590 q 238 854 136 795 q 460 913 340 913 q 679 854 576 913 q 842 692 781 795 q 902 472 902 590 m 815 472 q 711 724 815 620 q 460 827 606 827 q 207 724 312 827 q 102 472 102 620 q 207 221 102 326 q 460 117 312 117 q 711 221 606 117 q 815 472 815 326 m 271 712 l 498 712 q 601 669 557 712 q 644 567 644 625 q 609 476 644 507 q 644 380 644 438 l 644 237 l 541 237 l 541 380 q 528 410 541 397 q 498 422 515 422 l 372 422 l 372 237 l 271 237 l 271 712 m 372 525 l 498 525 q 528 537 515 525 q 541 567 541 549 q 528 597 541 585 q 498 609 515 609 l 372 609 l 372 525 z "},"¯":{"ha":694,"x_min":0,"x_max":0,"o":""},"°":{"ha":694,"x_min":0,"x_max":0,"o":""},"±":{"ha":694,"x_min":0,"x_max":0,"o":""},"²":{"ha":694,"x_min":0,"x_max":0,"o":""},"³":{"ha":694,"x_min":0,"x_max":0,"o":""},"´":{"ha":694,"x_min":0,"x_max":0,"o":""},"µ":{"ha":694,"x_min":0,"x_max":0,"o":""},"¶":{"ha":694,"x_min":0,"x_max":0,"o":""},"·":{"ha":694,"x_min":0,"x_max":0,"o":""},"¸":{"ha":694,"x_min":0,"x_max":0,"o":""},"¹":{"ha":694,"x_min":0,"x_max":0,"o":""},"º":{"ha":694,"x_min":0,"x_max":0,"o":""},"»":{"ha":694,"x_min":0,"x_max":0,"o":""},"¼":{"ha":694,"x_min":0,"x_max":0,"o":""},"½":{"ha":694,"x_min":0,"x_max":0,"o":""},"¾":{"ha":694,"x_min":0,"x_max":0,"o":""},"¿":{"ha":694,"x_min":0,"x_max":0,"o":""},"À":{"ha":694,"x_min":0,"x_max":0,"o":""},"Á":{"ha":694,"x_min":0,"x_max":0,"o":""},"Â":{"ha":694,"x_min":0,"x_max":0,"o":""},"Ã":{"ha":694,"x_min":0,"x_max":0,"o":""},"Ä":{"ha":694,"x_min":0,"x_max":0,"o":""},"Å":{"ha":694,"x_min":0,"x_max":0,"o":""},"Æ":{"ha":694,"x_min":0,"x_max":0,"o":""},"Ç":{"ha":694,"x_min":0,"x_max":0,"o":""},"È":{"ha":694,"x_min":0,"x_max":0,"o":""},"É":{"ha":694,"x_min":0,"x_max":0,"o":""},"Ê":{"ha":694,"x_min":0,"x_max":0,"o":""},"Ë":{"ha":694,"x_min":0,"x_max":0,"o":""},"Ì":{"ha":694,"x_min":0,"x_max":0,"o":""},"Í":{"ha":694,"x_min":0,"x_max":0,"o":""},"Î":{"ha":694,"x_min":0,"x_max":0,"o":""},"Ï":{"ha":694,"x_min":0,"x_max":0,"o":""},"Ð":{"ha":694,"x_min":0,"x_max":0,"o":""},"Ñ":{"ha":694,"x_min":0,"x_max":0,"o":""},"Ò":{"ha":694,"x_min":0,"x_max":0,"o":""},"Ó":{"ha":694,"x_min":0,"x_max":0,"o":""},"Ô":{"ha":694,"x_min":0,"x_max":0,"o":""},"Õ":{"ha":694,"x_min":0,"x_max":0,"o":""},"Ö":{"ha":694,"x_min":0,"x_max":0,"o":""},"×":{"ha":694,"x_min":0,"x_max":0,"o":""},"Ø":{"ha":694,"x_min":0,"x_max":0,"o":""},"Ù":{"ha":694,"x_min":0,"x_max":0,"o":""},"Ú":{"ha":694,"x_min":0,"x_max":0,"o":""},"Û":{"ha":694,"x_min":0,"x_max":0,"o":""},"Ü":{"ha":694,"x_min":0,"x_max":0,"o":""},"Ý":{"ha":694,"x_min":0,"x_max":0,"o":""},"Þ":{"ha":694,"x_min":0,"x_max":0,"o":""},"ß":{"ha":694,"x_min":0,"x_max":0,"o":""},"à":{"ha":694,"x_min":0,"x_max":0,"o":""},"á":{"ha":694,"x_min":0,"x_max":0,"o":""},"â":{"ha":694,"x_min":0,"x_max":0,"o":""},"ã":{"ha":694,"x_min":0,"x_max":0,"o":""},"ä":{"ha":694,"x_min":0,"x_max":0,"o":""},"å":{"ha":694,"x_min":0,"x_max":0,"o":""},"æ":{"ha":694,"x_min":0,"x_max":0,"o":""},"ç":{"ha":694,"x_min":0,"x_max":0,"o":""},"è":{"ha":694,"x_min":0,"x_max":0,"o":""},"é":{"ha":694,"x_min":0,"x_max":0,"o":""},"ê":{"ha":694,"x_min":0,"x_max":0,"o":""},"ë":{"ha":694,"x_min":0,"x_max":0,"o":""},"ì":{"ha":694,"x_min":0,"x_max":0,"o":""},"í":{"ha":694,"x_min":0,"x_max":0,"o":""},"î":{"ha":694,"x_min":0,"x_max":0,"o":""},"ï":{"ha":694,"x_min":0,"x_max":0,"o":""},"ð":{"ha":694,"x_min":0,"x_max":0,"o":""},"ñ":{"ha":694,"x_min":0,"x_max":0,"o":""},"ò":{"ha":694,"x_min":0,"x_max":0,"o":""},"ó":{"ha":694,"x_min":0,"x_max":0,"o":""},"ô":{"ha":694,"x_min":0,"x_max":0,"o":""},"õ":{"ha":694,"x_min":0,"x_max":0,"o":""},"ö":{"ha":694,"x_min":0,"x_max":0,"o":""},"÷":{"ha":694,"x_min":0,"x_max":0,"o":""},"ø":{"ha":694,"x_min":0,"x_max":0,"o":""},"ù":{"ha":694,"x_min":0,"x_max":0,"o":""},"ú":{"ha":694,"x_min":0,"x_max":0,"o":""},"û":{"ha":694,"x_min":0,"x_max":0,"o":""},"ü":{"ha":694,"x_min":0,"x_max":644,"o":"m 203 610 l 203 323 q 238 239 203 274 q 321 203 273 203 q 406 239 370 203 q 441 323 441 274 l 441 610 l 644 610 l 644 323 q 549 95 644 190 q 321 0 454 0 q 94 95 189 0 q 0 323 0 190 l 0 610 l 203 610 m 136 746 l 136 882 l 271 882 l 271 746 l 136 746 m 373 746 l 373 882 l 509 882 l 509 746 l 373 746 z "},"ý":{"ha":694,"x_min":0,"x_max":0,"o":""},"þ":{"ha":694,"x_min":0,"x_max":0,"o":""},"ÿ":{"ha":694,"x_min":0,"x_max":0,"o":""},"Œ":{"ha":694,"x_min":0,"x_max":0,"o":""},"œ":{"ha":694,"x_min":0,"x_max":0,"o":""},"Š":{"ha":694,"x_min":0,"x_max":0,"o":""},"š":{"ha":694,"x_min":0,"x_max":0,"o":""},"Ÿ":{"ha":694,"x_min":0,"x_max":0,"o":""},"Ž":{"ha":694,"x_min":0,"x_max":0,"o":""},"ž":{"ha":694,"x_min":0,"x_max":0,"o":""},"ƒ":{"ha":694,"x_min":0,"x_max":0,"o":""},"ˆ":{"ha":694,"x_min":0,"x_max":0,"o":""},"˜":{"ha":694,"x_min":0,"x_max":0,"o":""},"–":{"ha":694,"x_min":0,"x_max":0,"o":""},"—":{"ha":694,"x_min":0,"x_max":0,"o":""},"‘":{"ha":271,"x_min":0,"x_max":203,"o":"m 203 814 l 203 610 l 0 610 l 0 746 q 60 889 0 829 q 203 949 119 949 l 203 882 q 156 861 176 882 q 136 814 136 841 l 203 814 z "},"’":{"ha":271,"x_min":0,"x_max":203,"o":"m 0 746 l 0 949 l 203 949 l 203 814 q 144 671 203 731 q 0 610 84 610 l 0 678 q 47 699 27 678 q 68 746 68 719 l 0 746 z "},"‚":{"ha":814,"x_min":95,"x_max":651,"o":"m 95 163 l 95 787 l 651 787 l 651 163 l 95 163 m 136 203 l 610 203 l 610 746 l 136 746 l 136 203 z "},"“":{"ha":543,"x_min":0,"x_max":475,"o":"m 203 814 l 203 610 l 0 610 l 0 746 q 60 889 0 829 q 203 949 119 949 l 203 882 q 156 861 176 882 q 136 814 136 841 l 203 814 m 475 814 l 475 610 l 271 610 l 271 746 q 331 889 271 829 q 475 949 391 949 l 475 882 q 427 861 448 882 q 407 814 407 841 l 475 814 z "},"”":{"ha":543,"x_min":0,"x_max":475,"o":"m 271 746 l 271 949 l 475 949 l 475 814 q 415 671 475 731 q 271 610 355 610 l 271 678 q 319 699 298 678 q 339 746 339 719 l 271 746 m 0 746 l 0 949 l 203 949 l 203 814 q 144 671 203 731 q 0 610 84 610 l 0 678 q 47 699 27 678 q 68 746 68 719 l 0 746 z "},"„":{"ha":694,"x_min":0,"x_max":0,"o":""},"†":{"ha":694,"x_min":0,"x_max":0,"o":""},"‡":{"ha":694,"x_min":0,"x_max":0,"o":""},"•":{"ha":694,"x_min":0,"x_max":0,"o":""},"…":{"ha":694,"x_min":0,"x_max":0,"o":""},"‰":{"ha":694,"x_min":0,"x_max":0,"o":""},"‹":{"ha":694,"x_min":0,"x_max":0,"o":""},"›":{"ha":694,"x_min":0,"x_max":0,"o":""},"€":{"ha":814,"x_min":95,"x_max":651,"o":"m 95 163 l 95 787 l 651 787 l 651 163 l 95 163 m 136 203 l 610 203 l 610 746 l 136 746 l 136 203 z "},"™":{"ha":916,"x_min":0,"x_max":848,"o":"m 498 475 l 397 475 l 397 812 q 436 909 397 868 q 530 949 475 949 q 620 914 585 949 q 713 949 658 949 q 808 909 768 949 q 848 812 848 868 l 848 475 l 745 475 l 745 812 q 733 839 745 827 q 707 850 722 850 q 680 839 690 850 q 670 812 670 827 l 670 475 l 570 475 l 570 812 q 559 839 570 827 q 533 850 549 850 q 509 839 519 850 q 498 812 498 827 l 498 475 m 0 949 l 365 949 l 365 846 l 232 846 l 232 475 l 132 475 l 132 846 l 0 846 l 0 949 z "},"∙":{"ha":694,"x_min":0,"x_max":0,"o":""}}}
